<?xml version="1.0" standalone="no"?>
<!DOCTYPE svg PUBLIC "-//W3C//DTD SVG 20010904//EN"
 "http://www.w3.org/TR/2001/REC-SVG-20010904/DTD/svg10.dtd">
<svg version="1.0" xmlns="http://www.w3.org/2000/svg"
 width="900.000000pt" height="900.000000pt" viewBox="0 0 900.000000 900.000000"
 preserveAspectRatio="xMidYMid meet">

<g transform="translate(0.000000,900.000000) scale(0.100000,-0.100000)"
fill="#000000" stroke="none">
<path d="M4155 8983 c-296 -19 -725 -103 -1040 -203 -166 -53 -420 -157 -600
-245 -389 -192 -720 -418 -1060 -725 -126 -113 -335 -331 -335 -348 0 -14 243
-136 350 -175 321 -119 692 -170 1390 -192 702 -22 1140 -132 1449 -365 162
-123 337 -338 388 -476 86 -240 -4 -532 -362 -1164 -211 -373 -268 -507 -269
-632 -1 -85 14 -117 71 -151 17 -9 138 -51 269 -91 972 -300 1027 -318 1289
-421 924 -362 1797 -936 2463 -1619 63 -64 115 -116 117 -116 2 0 28 39 58 88
334 544 536 1118 628 1789 26 189 37 708 20 918 -96 1165 -625 2227 -1495
3003 -312 277 -627 488 -1011 677 -512 251 -1046 399 -1610 445 -110 9 -590
11 -710 3z"/>
<path d="M637 6817 c-347 -551 -539 -1104 -612 -1768 -22 -201 -31 -665 -16
-869 43 -590 190 -1139 445 -1656 103 -210 153 -298 274 -484 387 -593 931
-1106 1541 -1454 493 -281 1074 -476 1641 -550 382 -50 862 -47 1241 9 640 93
1250 324 1802 681 146 94 386 277 387 293 0 7 -34 80 -77 163 -290 568 -806
1128 -1418 1538 -456 306 -1109 598 -1630 729 -260 65 -476 94 -865 116 -320
19 -396 31 -507 85 -65 32 -95 55 -150 114 -214 229 -200 489 45 853 80 119
177 240 411 513 377 439 491 617 527 824 42 236 -92 418 -366 500 -186 55
-420 81 -900 101 -656 28 -1061 89 -1389 212 -101 37 -237 102 -283 134 -14
11 -28 19 -31 19 -2 0 -34 -47 -70 -103z"/>
</g>
</svg>
